<mxfile host="app.diagrams.net" modified="2023-07-19T00:51:43.364Z" agent="Mozilla/5.0 (X11; Linux x86_64) AppleWebKit/537.36 (KHTML, like Gecko) Chrome/114.0.0.0 Safari/537.36" version="21.6.3" etag="XlF3Eg6ZO0gFGINtp4yh" type="github">
  <diagram name="第 1 页" id="slu25E1-KT2jwVmTkCyp">
    <mxGraphModel>
      <root>
        <mxCell id="0" />
        <mxCell id="1" parent="0" />
      </root>
    </mxGraphModel>
  </diagram>
</mxfile>
